<svg width="1229" height="670" fill="none" xmlns="http://www.w3.org/2000/svg"><path d="M1383.574 581.592c0 126.473-102.53 229-229 229-126.473 0-229-102.527-229-229s102.527-229 229-229c126.47 0 229 102.527 229 229zm-419.07 0c0 104.973 85.1 190.07 190.07 190.07s190.07-85.097 190.07-190.07-85.1-190.07-190.07-190.07-190.07 85.097-190.07 190.07z" fill="#48bb78" fill-opacity=".15" style="fill:#48bb78;fill-opacity:.14901961"/><path style="opacity:1;fill:#48bb78;fill-rule:nonzero;stroke:none;stroke-width:.782388;stroke-miterlimit:4;stroke-dasharray:none;stroke-opacity:1;paint-order:stroke markers fill;fill-opacity:.14901961" d="M777.71 338.838a126.398 126.398 0 0 0-126.398 126.398 126.398 126.398 0 0 0 126.399 126.397 126.398 126.398 0 0 0 126.398-126.397 126.398 126.398 0 0 0-126.398-126.398zm0 34.139a92.258 92.258 0 0 1 92.259 92.26 92.258 92.258 0 0 1-92.258 92.257 92.258 92.258 0 0 1-92.258-92.258 92.258 92.258 0 0 1 92.258-92.26z"/></svg>