<svg width="1229" height="670" viewBox="0 0 1229 670" fill="none" xmlns="http://www.w3.org/2000/svg">
<path d="M436 194C436 256.408 385.408 307 323 307C260.592 307 210 256.408 210 194C210 131.592 260.592 81 323 81C385.408 81 436 131.592 436 194ZM228.833 194C228.833 246.007 270.993 288.167 323 288.167C375.007 288.167 417.167 246.007 417.167 194C417.167 141.993 375.007 99.8332 323 99.8332C270.993 99.8332 228.833 141.993 228.833 194Z" fill="#48BB78" fill-opacity="0.1"/>
<path d="M1336 536C1336 662.473 1233.47 765 1107 765C980.527 765 878 662.473 878 536C878 409.527 980.527 307 1107 307C1233.47 307 1336 409.527 1336 536ZM916.93 536C916.93 640.973 1002.03 726.07 1107 726.07C1211.97 726.07 1297.07 640.973 1297.07 536C1297.07 431.027 1211.97 345.93 1107 345.93C1002.03 345.93 916.93 431.027 916.93 536Z" fill="#48BB78" fill-opacity="0.1"/>
<path d="M127 56.5C127 87.7041 101.704 113 70.5 113C39.2959 113 14 87.7041 14 56.5C14 25.2959 39.2959 0 70.5 0C101.704 0 127 25.2959 127 56.5ZM23.2564 56.5C23.2564 82.5919 44.4081 103.744 70.5 103.744C96.5919 103.744 117.744 82.5919 117.744 56.5C117.744 30.4081 96.5919 9.25643 70.5 9.25643C44.4081 9.25643 23.2564 30.4081 23.2564 56.5Z" fill="#48BB78" fill-opacity="0.1"/>
<path d="M674 102C674 141.212 642.212 173 603 173C563.788 173 532 141.212 532 102C532 62.7878 563.788 31 603 31C642.212 31 674 62.7878 674 102ZM543.632 102C543.632 134.788 570.212 161.368 603 161.368C635.788 161.368 662.368 134.788 662.368 102C662.368 69.2119 635.788 42.632 603 42.632C570.212 42.632 543.632 69.2119 543.632 102Z" fill="#48BB78" fill-opacity="0.1"/>
<path d="M1188 179.5C1188 223.959 1151.96 260 1107.5 260C1063.04 260 1027 223.959 1027 179.5C1027 135.041 1063.04 99 1107.5 99C1151.96 99 1188 135.041 1188 179.5ZM1040.19 179.5C1040.19 216.675 1070.32 246.812 1107.5 246.812C1144.68 246.812 1174.81 216.675 1174.81 179.5C1174.81 142.325 1144.68 112.188 1107.5 112.188C1070.32 112.188 1040.19 142.325 1040.19 179.5Z" fill="#48BB78" fill-opacity="0.1"/>
<path d="M210 675.5C210 706.704 184.704 732 153.5 732C122.296 732 97 706.704 97 675.5C97 644.296 122.296 619 153.5 619C184.704 619 210 644.296 210 675.5ZM106.256 675.5C106.256 701.592 127.408 722.744 153.5 722.744C179.592 722.744 200.744 701.592 200.744 675.5C200.744 649.408 179.592 628.256 153.5 628.256C127.408 628.256 106.256 649.408 106.256 675.5Z" fill="#48BB78" fill-opacity="0.1"/>
<path d="M807 439.5C807 538.635 726.635 619 627.5 619C528.365 619 448 538.635 448 439.5C448 340.365 528.365 260 627.5 260C726.635 260 807 340.365 807 439.5ZM478.515 439.5C478.515 521.782 545.218 588.485 627.5 588.485C709.782 588.485 776.485 521.782 776.485 439.5C776.485 357.218 709.782 290.515 627.5 290.515C545.218 290.515 478.515 357.218 478.515 439.5Z" fill="#48BB78" fill-opacity="0.1"/>
<path d="M188 345C188 396.915 145.915 439 94 439C42.0852 439 0 396.915 0 345C0 293.085 42.0852 251 94 251C145.915 251 188 293.085 188 345ZM15.4001 345C15.4001 388.41 50.5905 423.6 94 423.6C137.41 423.6 172.6 388.41 172.6 345C172.6 301.59 137.41 266.4 94 266.4C50.5905 266.4 15.4001 301.59 15.4001 345Z" fill="#48BB78" fill-opacity="0.1"/>
<path d="M360 510C360 557.496 321.496 596 274 596C226.504 596 188 557.496 188 510C188 462.504 226.504 424 274 424C321.496 424 360 462.504 360 510ZM202.089 510C202.089 549.715 234.285 581.911 274 581.911C313.715 581.911 345.911 549.715 345.911 510C345.911 470.285 313.715 438.089 274 438.089C234.285 438.089 202.089 470.285 202.089 510Z" fill="#48BB78" fill-opacity="0.1"/>
<path d="M994 163.5C994 242.753 929.753 307 850.5 307C771.247 307 707 242.753 707 163.5C707 84.2471 771.247 20 850.5 20C929.753 20 994 84.2471 994 163.5ZM730.51 163.5C730.51 229.769 784.231 283.49 850.5 283.49C916.769 283.49 970.49 229.769 970.49 163.5C970.49 97.2312 916.769 43.5097 850.5 43.5097C784.231 43.5097 730.51 97.2312 730.51 163.5Z" fill="#48BB78" fill-opacity="0.1"/>
</svg>
